<svg xmlns="http://www.w3.org/2000/svg" width="280" height="323" viewBox="0 0 280 323" fill="none"><path fill-rule="evenodd" clip-rule="evenodd" d="M0 117.107L70.1016 157.458C70.8879 157.904 71.5693 158.559 72.0521 159.395C73.4948 161.898 72.6276 165.096 70.119 166.532L0 206.893V264L74.6759 221.076L75.1265 220.756C79.0177 218.282 82.2543 214.859 84.5112 210.817C86.6223 207.033 87.8717 202.709 87.9923 198.118L87.9798 197.749V126.251H88C87.9383 121.521 86.6796 117.068 84.5112 113.183C82.2543 109.14 79.0177 105.719 75.1265 103.245L74.6868 102.93L0 60V117.107Z" fill="#1DC275"></path><path fill-rule="evenodd" clip-rule="evenodd" d="M152.556 204.446L160.432 208.993L210.622 237.965L230.493 249.434L280 220.857L210.498 180.679C198.91 174.363 185.425 174.637 174.456 180.321L152.556 192.965L142.61 198.706L120.708 211.345C110.302 218.001 103.322 229.541 103 242.732L103.048 323L152.557 294.422L152.556 271.483V213.54V204.446Z" fill="#1DC275"></path><path fill-rule="evenodd" clip-rule="evenodd" d="M152.557 118.553L160.433 114.007L210.623 85.0349L230.494 73.5653L280 102.143L210.498 142.32C198.912 148.637 185.427 148.363 174.457 142.679L152.557 130.036L142.611 124.294L120.71 111.654C110.303 104.999 103.321 93.4582 103 80.2675L103.05 0L152.557 28.5777V51.5164V109.46V118.553Z" fill="#1DC275"></path></svg>