<?xml version="1.0" encoding="UTF-8"?>
<svg xmlns="http://www.w3.org/2000/svg" width="215" height="36" viewBox="0 0 215 36" fill="none">
  <path d="M113.798 14.3885C113.798 11.7972 114.52 9.77329 115.962 8.3176C117.405 6.86204 119.422 6.13401 122.013 6.13401H123.255C125.846 6.13401 127.87 6.86237 129.326 8.3176C130.781 9.77329 131.51 11.7982 131.51 14.3885V27.0104H128.184V14.4687C128.184 12.8925 127.736 11.65 126.841 10.7421C125.947 9.83383 124.71 9.37955 123.135 9.37955H122.133C120.585 9.37955 119.361 9.83383 118.467 10.7421C117.572 11.65 117.124 12.8934 117.124 14.4687V27.0104H113.798V14.3885ZM87.7792 9.82029H84.8541C83.358 9.82029 82.1292 10.3214 81.1676 11.3229C80.2059 12.3247 79.7249 13.6004 79.7249 15.1497V27.0104H76.3992V14.7891C76.3992 12.2513 77.1471 10.2545 78.6431 8.79852C80.139 7.34271 82.1826 6.61468 84.7738 6.61468H87.7792V9.82029ZM3.3259 8.52374V9.84846V27.0104H0V9.84846V6.61468H3.3259V8.52374ZM6.86121 14.3885C6.86121 11.7972 7.58239 9.77379 9.0249 8.3176C10.4675 6.86179 12.4843 6.13401 15.0755 6.13401H16.3177C18.9089 6.13401 20.9324 6.86179 22.3883 8.3176C23.8444 9.77379 24.5723 11.7972 24.5723 14.3885V27.0104H21.2465V14.4687C21.2465 12.8925 20.7989 11.6503 19.9041 10.7421C19.0091 9.83375 17.7737 9.37955 16.1975 9.37955H15.1959C13.6462 9.37955 12.4243 9.83375 11.5292 10.7421C10.6343 11.6503 10.1869 12.8925 10.1869 14.4687V27.0104H6.86121V14.3885ZM34.8348 27.5315C32.4307 27.5315 30.5809 26.9572 29.285 25.8085C27.9895 24.6598 27.3282 23.1237 27.3016 21.2003H30.6274C30.6541 22.2423 31.0082 23.0502 31.6892 23.6246C32.3706 24.199 33.4858 24.4861 35.0352 24.4861H36.7984C39.7367 24.4861 41.2058 23.5511 41.2058 21.6812C41.2058 20.6662 40.8854 19.9314 40.2442 19.4774C39.6031 19.0233 38.6014 18.6894 37.239 18.4756L33.833 17.7943C31.8029 17.4202 30.2601 16.8127 29.2049 15.971C28.1497 15.1297 27.6221 13.7471 27.6221 11.824C27.6221 10.0341 28.27 8.63834 29.5654 7.63657C30.8612 6.63479 32.6978 6.13401 35.075 6.13401H36.8783C39.2292 6.13401 41.0457 6.70148 42.3279 7.83693C43.6102 8.97238 44.2513 10.448 44.2513 12.2647H40.8854C40.8854 10.1808 39.483 9.13917 36.678 9.13917H35.2755C32.4172 9.13917 30.988 10.0608 30.988 11.9042C30.988 12.8389 31.2886 13.527 31.8895 13.9677C32.4906 14.4084 33.419 14.7357 34.6746 14.9495L38.2006 15.6307C40.2308 15.9777 41.8004 16.5856 42.9089 17.4537C44.0176 18.322 44.5719 19.7311 44.5719 21.6812C44.5719 23.5243 43.9175 24.9603 42.6084 25.9887C41.2994 27.0172 39.4161 27.5315 36.9585 27.5315H34.8348ZM56.0319 27.4913C53.8147 27.4913 52.1051 26.8102 50.903 25.4479L50.9432 26.5698V35.3049H47.6171V14.5085C47.6171 11.864 48.3452 9.8003 49.8011 8.3176C51.2569 6.83516 53.3339 6.09383 56.0319 6.09383H57.3943C60.0389 6.09383 62.1094 6.84176 63.6053 8.33776C65.1012 9.83375 65.8493 11.8907 65.8493 14.5085V19.0765C65.8493 21.6946 65.1278 23.7514 63.6853 25.2475C62.2428 26.7433 60.3061 27.4913 57.8753 27.4913H56.0319ZM50.9432 19.0366C50.9432 20.6662 51.3972 21.9484 52.3054 22.8834C53.2137 23.8182 54.4692 24.2857 56.0721 24.2857H57.3542C58.9571 24.2857 60.2126 23.8182 61.1208 22.8834C62.0293 21.9484 62.4834 20.6662 62.4834 19.0366V14.5887C62.4834 12.9592 62.0293 11.6769 61.1208 10.7421C60.2126 9.80711 58.9571 9.33961 57.3542 9.33961H56.0721C54.4424 9.33961 53.1804 9.8003 52.2853 10.722C51.3905 11.6436 50.9432 12.9324 50.9432 14.5887V19.0366ZM69.34 6.61468H72.6659V27.0104H69.34V6.61468Z" fill="black"></path>
  <path d="M147.662 0.000213623V21.4736C147.662 23.8022 148.932 24.9665 151.472 24.9665H153.218V28.1021H150.797C148.68 28.1021 147.079 27.5531 145.994 26.4549C144.91 25.3568 144.367 23.6435 144.367 21.3148V0.000213623H147.662ZM161.991 28.6182C159.715 28.6182 157.935 28.0295 156.652 26.852C155.369 25.6743 154.727 24.1329 154.727 22.2277C154.727 20.2961 155.369 18.7414 156.652 17.5639C157.935 16.3865 159.715 15.7976 161.991 15.7976H168.976V14.6863C168.976 13.4425 168.573 12.4237 167.766 11.63C166.959 10.8361 165.827 10.4393 164.372 10.4393H163.459C162.162 10.4393 161.104 10.7435 160.284 11.3521C159.463 11.9607 158.947 12.7679 158.736 13.7734H155.402C155.746 11.7093 156.632 10.1349 158.061 9.04997C159.49 7.96505 161.329 7.42267 163.578 7.42267H164.134C166.806 7.42267 168.818 8.11713 170.167 9.5065C171.517 10.8955 172.191 12.8471 172.191 15.361V22.6644C172.191 23.5904 172.337 24.2455 172.628 24.629C172.919 25.0127 173.395 25.2048 174.057 25.2048H175.049V28.1021H173.382C172.429 28.1021 171.656 27.8972 171.06 27.487C170.465 27.0768 170.035 26.5145 169.77 25.8002C169.214 26.7261 168.454 27.4275 167.488 27.9038C166.522 28.3801 165.43 28.6182 164.213 28.6182H161.991ZM158.061 22.1485C158.061 23.1804 158.445 24.027 159.212 24.6887C159.979 25.3502 161.064 25.6809 162.467 25.6809H163.856C165.364 25.6809 166.595 25.2577 167.547 24.4108C168.5 23.564 168.976 22.3732 168.976 20.8385V18.6554H162.467C161.064 18.6554 159.979 18.9797 159.212 19.6279C158.445 20.2762 158.061 21.1164 158.061 22.1485ZM184.972 28.6182C182.3 28.6182 180.242 27.884 178.8 26.4153C177.358 24.9467 176.637 22.9025 176.637 20.2828V0.000213623H179.931V8.33561L179.892 9.44691C181.083 8.09735 182.776 7.42267 184.972 7.42267H186.798C189.206 7.42267 191.125 8.16342 192.554 9.64536C193.983 11.1272 194.697 13.1648 194.697 15.7581V20.2828C194.697 22.876 193.956 24.9136 192.474 26.3954C190.992 27.8773 188.941 28.6182 186.322 28.6182H184.972ZM179.931 20.2035C179.931 21.844 180.375 23.1209 181.261 24.0337C182.147 24.9467 183.398 25.4031 185.012 25.4031H186.282C187.87 25.4031 189.113 24.9401 190.013 24.0138C190.913 23.0878 191.363 21.8176 191.363 20.2035V15.7976C191.363 14.1835 190.913 12.9133 190.013 11.9873C189.113 11.0612 187.87 10.598 186.282 10.598H185.012C183.424 10.598 182.181 11.0612 181.281 11.9873C180.381 12.9133 179.931 14.1835 179.931 15.7976V20.2035ZM204.858 28.6182C202.477 28.6182 200.644 28.0493 199.361 26.9115C198.077 25.7736 197.422 24.2521 197.396 22.3468H200.69C200.717 23.3788 201.067 24.1793 201.742 24.7482C202.417 25.3171 203.522 25.6016 205.057 25.6016H206.803C209.714 25.6016 211.169 24.6756 211.169 22.8231C211.169 21.8176 210.851 21.09 210.216 20.6401C209.581 20.1902 208.589 19.8593 207.24 19.6478L203.866 18.9731C201.855 18.6026 200.327 18.0006 199.281 17.167C198.236 16.3336 197.713 14.9641 197.713 13.059C197.713 11.2859 198.355 9.90344 199.638 8.9111C200.922 7.91876 202.741 7.42267 205.096 7.42267H206.882C209.211 7.42267 211.01 7.98495 212.28 9.10947C213.551 10.2341 214.186 11.6961 214.186 13.4954H210.851C210.851 11.4315 209.462 10.3996 206.684 10.3996H205.295C202.463 10.3996 201.048 11.3124 201.048 13.1383C201.048 14.0643 201.345 14.7458 201.941 15.1824C202.536 15.6189 203.456 15.9432 204.699 16.1548L208.192 16.8296C210.203 17.1736 211.758 17.7755 212.856 18.6355C213.954 19.4957 214.503 20.8913 214.503 22.8231C214.503 24.6489 213.855 26.0712 212.558 27.09C211.262 28.1087 209.396 28.6182 206.962 28.6182H204.858Z" fill="black"></path>
  <path fill-rule="evenodd" clip-rule="evenodd" d="M90.25 13.3143L95.5842 16.394C95.6441 16.428 95.6959 16.478 95.7326 16.5418C95.8424 16.7329 95.7764 16.9769 95.5856 17.0866L90.25 20.167V24.5256L95.9323 21.2496L95.9666 21.2251C96.2627 21.0363 96.509 20.775 96.6807 20.4665C96.8413 20.1777 96.9364 19.8477 96.9456 19.4973L96.9446 19.4691V14.0122H96.9462C96.9415 13.6511 96.8457 13.3112 96.6807 13.0148C96.509 12.7062 96.2627 12.445 95.9666 12.2562L95.9331 12.2322L90.25 8.95564V13.3143Z" fill="#1DC275"></path>
  <path fill-rule="evenodd" clip-rule="evenodd" d="M101.847 20.0068L102.447 20.3534L106.272 22.5616L107.786 23.4358L111.559 21.2576L106.262 18.1953C105.379 17.7139 104.352 17.7348 103.516 18.168L101.847 19.1317L101.089 19.5693L99.4198 20.5326C98.6267 21.0399 98.0948 21.9196 98.0703 22.925L98.074 29.043L101.847 26.8648L101.847 25.1164V20.6999V20.0068Z" fill="#1DC275"></path>
  <path fill-rule="evenodd" clip-rule="evenodd" d="M101.845 13.4743L102.445 13.1278L106.27 10.9196L107.784 10.0454L111.557 12.2236L106.26 15.2859C105.377 15.7674 104.35 15.7464 103.514 15.3132L101.845 14.3496L101.087 13.9119L99.4179 12.9485C98.6249 12.4413 98.0928 11.5616 98.0684 10.5562L98.0721 4.43826L101.845 6.61645V8.36483V12.7813V13.4743Z" fill="#1DC275"></path>
</svg>
